<?xml version="1.0" standalone="no"?>
<!DOCTYPE svg PUBLIC "-//W3C//DTD SVG 20010904//EN"
 "http://www.w3.org/TR/2001/REC-SVG-20010904/DTD/svg10.dtd">
<svg version="1.0" xmlns="http://www.w3.org/2000/svg"
 width="200.000000pt" height="200.000000pt" viewBox="0 0 200.000000 200.000000"
 preserveAspectRatio="xMidYMid meet">
<metadata>
Created by potrace 1.14, written by Peter Selinger 2001-2017
</metadata>
<g transform="translate(0.000000,200.000000) scale(0.100000,-0.100000)"
fill="#000000" stroke="none">
<path d="M865 1446 c-85 -40 -145 -122 -145 -196 0 -27 3 -30 30 -30 25 0 30
-4 30 -24 0 -14 4 -36 10 -50 8 -21 16 -26 43 -26 l34 0 -16 50 c-14 44 -19
50 -45 50 -27 0 -28 2 -23 37 8 48 53 102 108 131 50 27 123 25 166 -3 18 -12
36 -15 66 -9 l42 7 -34 28 c-74 61 -181 75 -266 35z"/>
<path d="M1145 1272 c11 -42 15 -47 44 -50 37 -4 39 -18 12 -78 -36 -79 -132
-125 -213 -103 -24 6 -47 14 -53 19 -13 9 -85 1 -85 -11 0 -18 78 -60 133 -71
69 -15 131 -2 192 40 49 34 95 106 102 161 6 40 5 41 -25 41 -28 0 -31 4 -37
40 -7 44 -15 51 -55 56 l-27 3 12 -47z"/>
<path d="M523 820 c-4 -14 -14 -20 -32 -20 -33 0 -51 -17 -51 -46 0 -29 15
-38 63 -39 l37 -1 0 63 c0 63 -7 81 -17 43z m-5 -62 c-3 -25 -34 -36 -50 -20
-17 17 -1 42 27 42 22 0 26 -4 23 -22z"/>
<path d="M1310 822 c0 -18 -6 -22 -29 -22 -31 0 -61 -22 -61 -45 0 -21 40 -42
75 -40 29 2 30 4 33 55 2 29 -2 58 -7 63 -8 8 -11 4 -11 -11z m-2 -64 c4 -23
-36 -34 -55 -15 -9 8 -12 20 -8 27 10 17 59 8 63 -12z"/>
<path d="M202 814 c-33 -23 -27 -74 10 -92 28 -13 78 -7 78 9 0 5 -11 7 -24 3
-48 -12 -86 32 -54 64 7 7 28 12 48 12 26 0 31 3 20 10 -22 14 -53 12 -78 -6z"/>
<path d="M774 823 c-18 -13 -28 -89 -12 -99 16 -10 118 -12 118 -2 0 5 -4 8
-10 8 -15 0 -12 27 5 44 20 20 19 26 -4 26 -12 0 -21 -8 -23 -20 -5 -35 -22
-27 -22 10 -1 27 -5 36 -21 38 -11 1 -25 -1 -31 -5z m36 -29 c0 -9 -5 -14 -12
-12 -18 6 -21 28 -4 28 9 0 16 -7 16 -16z m1 -62 c-19 -6 -41 6 -41 23 0 14 3
13 26 -2 15 -9 21 -19 15 -21z"/>
<path d="M982 814 c-38 -26 -24 -86 24 -98 29 -8 64 1 64 15 0 6 -9 7 -20 4
-28 -9 -58 3 -65 26 -9 29 12 49 52 49 20 0 32 4 28 10 -9 15 -58 12 -83 -6z"/>
<path d="M332 788 c-19 -19 -14 -56 8 -68 46 -25 102 27 70 65 -15 18 -61 20
-78 3z m66 -36 c-5 -24 -52 -23 -56 2 -2 10 2 22 9 27 18 11 51 -9 47 -29z"/>
<path d="M582 788 c-33 -33 17 -91 61 -70 21 10 20 11 -10 11 -48 1 -52 21 -4
21 42 0 53 14 29 38 -15 15 -61 15 -76 0z m68 -17 c0 -5 -11 -8 -25 -8 -14 0
-25 3 -25 8 0 5 11 9 25 9 14 0 25 -4 25 -9z"/>
<path d="M1110 789 c0 -6 9 -9 19 -6 10 2 25 1 32 -4 10 -6 7 -9 -11 -9 -39 0
-57 -16 -44 -37 8 -12 23 -18 50 -18 32 1 40 5 42 22 6 39 -15 63 -53 63 -19
0 -35 -5 -35 -11z m65 -49 c-3 -5 -17 -10 -31 -10 -13 0 -24 5 -24 10 0 6 14
10 31 10 17 0 28 -4 24 -10z"/>
<path d="M1366 784 c-23 -22 -20 -41 9 -60 19 -12 31 -14 52 -6 l28 10 -32 1
c-44 1 -53 21 -10 21 43 0 51 9 30 32 -20 22 -56 23 -77 2z m64 -14 c0 -5 -11
-10 -25 -10 -14 0 -25 5 -25 10 0 6 11 10 25 10 14 0 25 -4 25 -10z"/>
<path d="M1480 761 c0 -22 5 -43 10 -46 6 -4 10 8 10 28 0 26 5 36 19 40 24 6
41 -10 41 -40 0 -13 5 -23 10 -23 14 0 12 54 -2 68 -7 7 -29 12 -50 12 -38 0
-38 0 -38 -39z"/>
<path d="M1623 792 c-11 -7 -16 -26 -14 -49 2 -18 39 -35 61 -28 28 9 25 23
-3 18 -32 -6 -53 20 -33 40 9 8 25 13 36 10 11 -3 20 0 20 6 0 12 -49 15 -67
3z"/>
<path d="M1732 788 c-33 -33 17 -91 61 -70 21 10 20 11 -10 11 -48 1 -52 21
-4 21 42 0 53 14 29 38 -15 15 -61 15 -76 0z m68 -18 c0 -5 -11 -10 -24 -10
-14 0 -28 5 -31 10 -4 6 7 10 24 10 17 0 31 -4 31 -10z"/>
<path d="M174 608 c-4 -6 0 -16 9 -23 22 -16 21 -22 0 -28 -16 -4 -16 -5 -1
-6 26 -2 33 20 12 36 -16 12 -17 15 -4 23 9 6 10 10 3 10 -6 0 -15 -5 -19 -12z"/>
<path d="M233 585 c0 -22 2 -30 4 -17 2 12 2 30 0 40 -3 9 -5 -1 -4 -23z"/>
<path d="M790 580 c0 -22 3 -40 8 -40 4 0 7 18 7 40 0 22 -3 40 -7 40 -5 0 -8
-18 -8 -40z"/>
<path d="M1339 603 c-1 -10 -1 -23 0 -30 1 -6 -6 -14 -16 -16 -14 -4 -13 -5 5
-6 19 -1 22 4 22 34 0 36 -9 50 -11 18z"/>
<path d="M1433 585 c0 -22 2 -30 4 -17 2 12 2 30 0 40 -3 9 -5 -1 -4 -23z"/>
<path d="M1502 590 c0 -19 2 -27 5 -17 2 9 2 25 0 35 -3 9 -5 1 -5 -18z"/>
<path d="M352 575 c0 -16 2 -22 5 -12 2 9 2 23 0 30 -3 6 -5 -1 -5 -18z"/>
<path d="M1570 590 c0 -5 5 -10 11 -10 5 0 7 5 4 10 -3 6 -8 10 -11 10 -2 0
-4 -4 -4 -10z"/>
<path d="M1722 575 c0 -16 2 -22 5 -12 2 9 2 23 0 30 -3 6 -5 -1 -5 -18z"/>
<path d="M257 569 c4 -13 8 -18 11 -10 2 7 -1 18 -6 23 -8 8 -9 4 -5 -13z"/>
<path d="M421 572 c-1 -17 4 -23 16 -20 9 2 18 9 19 16 1 7 0 8 -3 2 -7 -16
-21 -12 -26 8 -3 12 -5 11 -6 -6z"/>
<path d="M482 570 c0 -14 2 -19 5 -12 2 6 2 18 0 25 -3 6 -5 1 -5 -13z"/>
<path d="M504 570 c0 -13 4 -16 10 -10 7 7 7 13 0 20 -6 6 -10 3 -10 -10z"/>
<path d="M574 579 c-3 -6 -2 -15 3 -20 5 -5 9 -1 9 11 0 23 -2 24 -12 9z"/>
<path d="M640 579 c0 -5 4 -8 9 -4 5 3 12 -3 14 -12 4 -14 5 -13 6 5 1 13 -5
22 -14 22 -8 0 -15 -5 -15 -11z"/>
<path d="M694 579 c-3 -6 -2 -15 3 -20 5 -5 9 -1 9 11 0 23 -2 24 -12 9z"/>
<path d="M865 580 c-8 -13 3 -30 18 -30 7 0 6 4 -3 10 -13 9 -13 11 0 20 9 6
10 10 3 10 -6 0 -15 -4 -18 -10z"/>
<path d="M915 580 c-8 -14 3 -30 21 -30 8 0 14 9 14 20 0 21 -24 28 -35 10z
m25 -10 c0 -5 -4 -10 -10 -10 -5 0 -10 5 -10 10 0 6 5 10 10 10 6 0 10 -4 10
-10z"/>
<path d="M974 579 c-3 -6 -2 -15 3 -20 5 -5 9 -1 9 11 0 23 -2 24 -12 9z"/>
<path d="M1002 570 c0 -14 2 -19 5 -12 2 6 2 18 0 25 -3 6 -5 1 -5 -13z"/>
<path d="M1035 580 c-8 -13 3 -30 18 -30 8 0 7 3 -2 9 -7 5 -10 14 -7 20 4 6
5 11 2 11 -3 0 -8 -4 -11 -10z"/>
<path d="M1197 583 c-4 -3 -7 -18 -7 -32 0 -19 3 -22 9 -12 5 8 7 20 4 27 -2
7 4 14 14 17 14 4 14 5 2 6 -9 0 -19 -2 -22 -6z"/>
<path d="M1255 580 c-8 -13 3 -30 18 -30 8 0 7 3 -2 9 -7 5 -10 14 -7 20 4 6
5 11 2 11 -3 0 -8 -4 -11 -10z"/>
<path d="M1370 570 c0 -11 4 -20 10 -20 5 0 7 7 4 15 -4 8 -1 15 4 15 6 0 13
-8 15 -17 4 -14 5 -12 6 5 1 16 -5 22 -19 22 -13 0 -20 -7 -20 -20z"/>
<path d="M1617 583 c-10 -9 -9 -33 1 -33 4 0 8 9 8 20 0 23 0 22 -9 13z"/>
<path d="M1642 570 c0 -14 2 -19 5 -12 2 6 2 18 0 25 -3 6 -5 1 -5 -13z"/>
<path d="M1754 579 c-3 -6 -1 -16 4 -21 8 -8 11 -5 9 11 -1 24 -3 25 -13 10z"/>
<path d="M1812 570 c0 -14 2 -19 5 -12 2 6 2 18 0 25 -3 6 -5 1 -5 -13z"/>
<path d="M291 564 c0 -11 3 -14 6 -6 3 7 2 16 -1 19 -3 4 -6 -2 -5 -13z"/>
<path d="M1677 569 c7 -7 15 -10 18 -7 3 3 -2 9 -12 12 -14 6 -15 5 -6 -5z"/>
</g>
</svg>
